<mxfile host="Electron" modified="2025-02-13T07:21:36.794Z" agent="Mozilla/5.0 (Windows NT 10.0; Win64; x64) AppleWebKit/537.36 (KHTML, like Gecko) draw.io/21.7.5 Chrome/114.0.5735.289 Electron/25.8.1 Safari/537.36" etag="SNUhrH8PJd4aaBrOkwud" version="21.7.5" type="device">
  <diagram name="PÃ¡gina-1" id="5tkqDhQXrlFwnxYgTPMq">
    <mxGraphModel dx="712" dy="827" grid="1" gridSize="10" guides="1" tooltips="1" connect="1" arrows="1" fold="1" page="1" pageScale="1" pageWidth="1169" pageHeight="827" math="0" shadow="0">
      <root>
        <mxCell id="0" />
        <mxCell id="1" parent="0" />
        <mxCell id="Su5vD015DT9awgMVUU7w-5" value="Miembros" style="swimlane;fontStyle=0;childLayout=stackLayout;horizontal=1;startSize=26;fillColor=none;horizontalStack=0;resizeParent=1;resizeParentMax=0;resizeLast=0;collapsible=1;marginBottom=0;whiteSpace=wrap;html=1;" vertex="1" parent="1">
          <mxGeometry x="350" y="30" width="140" height="78" as="geometry" />
        </mxCell>
        <mxCell id="Su5vD015DT9awgMVUU7w-6" value="- nombre: String" style="text;strokeColor=none;fillColor=none;align=left;verticalAlign=top;spacingLeft=4;spacingRight=4;overflow=hidden;rotatable=0;points=[[0,0.5],[1,0.5]];portConstraint=eastwest;whiteSpace=wrap;html=1;" vertex="1" parent="Su5vD015DT9awgMVUU7w-5">
          <mxGeometry y="26" width="140" height="26" as="geometry" />
        </mxCell>
        <mxCell id="Su5vD015DT9awgMVUU7w-7" value="- DNI: String" style="text;strokeColor=none;fillColor=none;align=left;verticalAlign=top;spacingLeft=4;spacingRight=4;overflow=hidden;rotatable=0;points=[[0,0.5],[1,0.5]];portConstraint=eastwest;whiteSpace=wrap;html=1;" vertex="1" parent="Su5vD015DT9awgMVUU7w-5">
          <mxGeometry y="52" width="140" height="26" as="geometry" />
        </mxCell>
        <mxCell id="Su5vD015DT9awgMVUU7w-9" value="Estudiante" style="swimlane;fontStyle=0;childLayout=stackLayout;horizontal=1;startSize=26;fillColor=none;horizontalStack=0;resizeParent=1;resizeParentMax=0;resizeLast=0;collapsible=1;marginBottom=0;whiteSpace=wrap;html=1;" vertex="1" parent="1">
          <mxGeometry x="210" y="170" width="140" height="52" as="geometry" />
        </mxCell>
        <mxCell id="Su5vD015DT9awgMVUU7w-10" value="- NIE: String" style="text;strokeColor=none;fillColor=none;align=left;verticalAlign=top;spacingLeft=4;spacingRight=4;overflow=hidden;rotatable=0;points=[[0,0.5],[1,0.5]];portConstraint=eastwest;whiteSpace=wrap;html=1;" vertex="1" parent="Su5vD015DT9awgMVUU7w-9">
          <mxGeometry y="26" width="140" height="26" as="geometry" />
        </mxCell>
        <mxCell id="Su5vD015DT9awgMVUU7w-12" value="Personal" style="swimlane;fontStyle=0;childLayout=stackLayout;horizontal=1;startSize=26;fillColor=none;horizontalStack=0;resizeParent=1;resizeParentMax=0;resizeLast=0;collapsible=1;marginBottom=0;whiteSpace=wrap;html=1;" vertex="1" parent="1">
          <mxGeometry x="480" y="170" width="140" height="52" as="geometry" />
        </mxCell>
        <mxCell id="Su5vD015DT9awgMVUU7w-13" value="- salario: double" style="text;strokeColor=none;fillColor=none;align=left;verticalAlign=top;spacingLeft=4;spacingRight=4;overflow=hidden;rotatable=0;points=[[0,0.5],[1,0.5]];portConstraint=eastwest;whiteSpace=wrap;html=1;" vertex="1" parent="Su5vD015DT9awgMVUU7w-12">
          <mxGeometry y="26" width="140" height="26" as="geometry" />
        </mxCell>
        <mxCell id="Su5vD015DT9awgMVUU7w-14" value="PDI" style="swimlane;fontStyle=0;childLayout=stackLayout;horizontal=1;startSize=26;fillColor=none;horizontalStack=0;resizeParent=1;resizeParentMax=0;resizeLast=0;collapsible=1;marginBottom=0;whiteSpace=wrap;html=1;" vertex="1" parent="1">
          <mxGeometry x="400" y="310" width="140" height="52" as="geometry" />
        </mxCell>
        <mxCell id="Su5vD015DT9awgMVUU7w-15" value="- asignatura: String" style="text;strokeColor=none;fillColor=none;align=left;verticalAlign=top;spacingLeft=4;spacingRight=4;overflow=hidden;rotatable=0;points=[[0,0.5],[1,0.5]];portConstraint=eastwest;whiteSpace=wrap;html=1;" vertex="1" parent="Su5vD015DT9awgMVUU7w-14">
          <mxGeometry y="26" width="140" height="26" as="geometry" />
        </mxCell>
        <mxCell id="Su5vD015DT9awgMVUU7w-17" value="PAS" style="swimlane;fontStyle=0;childLayout=stackLayout;horizontal=1;startSize=26;fillColor=none;horizontalStack=0;resizeParent=1;resizeParentMax=0;resizeLast=0;collapsible=1;marginBottom=0;whiteSpace=wrap;html=1;" vertex="1" parent="1">
          <mxGeometry x="620" y="310" width="140" height="52" as="geometry" />
        </mxCell>
        <mxCell id="Su5vD015DT9awgMVUU7w-19" value="- edificio: String" style="text;strokeColor=none;fillColor=none;align=left;verticalAlign=top;spacingLeft=4;spacingRight=4;overflow=hidden;rotatable=0;points=[[0,0.5],[1,0.5]];portConstraint=eastwest;whiteSpace=wrap;html=1;" vertex="1" parent="Su5vD015DT9awgMVUU7w-17">
          <mxGeometry y="26" width="140" height="26" as="geometry" />
        </mxCell>
        <mxCell id="Su5vD015DT9awgMVUU7w-20" value="Doctorado" style="swimlane;fontStyle=0;childLayout=stackLayout;horizontal=1;startSize=26;fillColor=none;horizontalStack=0;resizeParent=1;resizeParentMax=0;resizeLast=0;collapsible=1;marginBottom=0;whiteSpace=wrap;html=1;" vertex="1" parent="1">
          <mxGeometry x="180" y="310" width="140" height="52" as="geometry" />
        </mxCell>
        <mxCell id="Su5vD015DT9awgMVUU7w-21" value="- titulo: String" style="text;strokeColor=none;fillColor=none;align=left;verticalAlign=top;spacingLeft=4;spacingRight=4;overflow=hidden;rotatable=0;points=[[0,0.5],[1,0.5]];portConstraint=eastwest;whiteSpace=wrap;html=1;" vertex="1" parent="Su5vD015DT9awgMVUU7w-20">
          <mxGeometry y="26" width="140" height="26" as="geometry" />
        </mxCell>
        <mxCell id="Su5vD015DT9awgMVUU7w-22" value="" style="endArrow=block;endSize=16;endFill=0;html=1;rounded=0;entryX=0.286;entryY=1.077;entryDx=0;entryDy=0;entryPerimeter=0;exitX=0.5;exitY=0;exitDx=0;exitDy=0;" edge="1" parent="1" source="Su5vD015DT9awgMVUU7w-9" target="Su5vD015DT9awgMVUU7w-7">
          <mxGeometry width="160" relative="1" as="geometry">
            <mxPoint x="390" y="230" as="sourcePoint" />
            <mxPoint x="550" y="230" as="targetPoint" />
          </mxGeometry>
        </mxCell>
        <mxCell id="Su5vD015DT9awgMVUU7w-23" value="" style="endArrow=block;endSize=16;endFill=0;html=1;rounded=0;entryX=0.559;entryY=1.103;entryDx=0;entryDy=0;entryPerimeter=0;exitX=0.5;exitY=0;exitDx=0;exitDy=0;" edge="1" parent="1" source="Su5vD015DT9awgMVUU7w-12" target="Su5vD015DT9awgMVUU7w-7">
          <mxGeometry width="160" relative="1" as="geometry">
            <mxPoint x="290" y="180" as="sourcePoint" />
            <mxPoint x="400" y="120" as="targetPoint" />
          </mxGeometry>
        </mxCell>
        <mxCell id="Su5vD015DT9awgMVUU7w-24" value="" style="endArrow=block;endSize=16;endFill=0;html=1;rounded=0;entryX=0.286;entryY=1.077;entryDx=0;entryDy=0;entryPerimeter=0;exitX=0.5;exitY=0;exitDx=0;exitDy=0;" edge="1" parent="1" source="Su5vD015DT9awgMVUU7w-14">
          <mxGeometry width="160" relative="1" as="geometry">
            <mxPoint x="430" y="282" as="sourcePoint" />
            <mxPoint x="540" y="222" as="targetPoint" />
          </mxGeometry>
        </mxCell>
        <mxCell id="Su5vD015DT9awgMVUU7w-25" value="" style="endArrow=block;endSize=16;endFill=0;html=1;rounded=0;entryX=0.547;entryY=1.069;entryDx=0;entryDy=0;entryPerimeter=0;exitX=0.5;exitY=0;exitDx=0;exitDy=0;" edge="1" parent="1" source="Su5vD015DT9awgMVUU7w-17" target="Su5vD015DT9awgMVUU7w-13">
          <mxGeometry width="160" relative="1" as="geometry">
            <mxPoint x="310" y="200" as="sourcePoint" />
            <mxPoint x="420" y="140" as="targetPoint" />
          </mxGeometry>
        </mxCell>
        <mxCell id="Su5vD015DT9awgMVUU7w-26" value="" style="endArrow=block;endSize=16;endFill=0;html=1;rounded=0;entryX=-0.019;entryY=-0.098;entryDx=0;entryDy=0;entryPerimeter=0;" edge="1" parent="1" target="Su5vD015DT9awgMVUU7w-15">
          <mxGeometry width="160" relative="1" as="geometry">
            <mxPoint x="320" y="333" as="sourcePoint" />
            <mxPoint x="430" y="270" as="targetPoint" />
          </mxGeometry>
        </mxCell>
        <mxCell id="Su5vD015DT9awgMVUU7w-27" value="" style="endArrow=block;endSize=16;endFill=0;html=1;rounded=0;entryX=0.286;entryY=1.077;entryDx=0;entryDy=0;entryPerimeter=0;exitX=0.5;exitY=0;exitDx=0;exitDy=0;" edge="1" parent="1" source="Su5vD015DT9awgMVUU7w-20">
          <mxGeometry width="160" relative="1" as="geometry">
            <mxPoint x="170" y="282" as="sourcePoint" />
            <mxPoint x="280" y="222" as="targetPoint" />
          </mxGeometry>
        </mxCell>
      </root>
    </mxGraphModel>
  </diagram>
</mxfile>
